<svg xmlns="http://www.w3.org/2000/svg" width="630" height="655" viewBox="-1953 -2031 3906 4061"><path fill="red" d="m-90 2030 45-863a95 95 0 0 0-111-98l-859 151 116-320a65 65 0 0 0-20-73l-941-762 212-99a65 65 0 0 0 34-79l-186-572 542 115a65 65 0 0 0 73-38l105-247 423 454a65 65 0 0 0 111-57l-204-1052 327 189a65 65 0 0 0 91-27L0-2000l332 652a65 65 0 0 0 91 27l327-189L546-458a65 65 0 0 0 111 57l423-454 105 247a65 65 0 0 0 73 38l542-115-186 572a65 65 0 0 0 34 79l212 99-941 762a65 65 0 0 0-20 73l116 320-859-151a95 95 0 0 0-111 98l45 863z"/><text xml:space="preserve" style="font-style:normal;font-weight:400;font-size:992px;line-height:1.35;font-family:sans-serif;fill:#fff;fill-opacity:1;stroke:none;stroke-width:6.2" x="4.476" y="555.47"><tspan x="4.476" y="555.47" style="font-style:normal;font-variant:normal;font-weight:400;font-stretch:normal;font-size:992px;font-family:Verdana;-inkscape-font-specification:Verdana;text-align:center;text-anchor:middle;fill:#fff;stroke-width:6.2">FWF</tspan></text></svg>